<?xml version="1.0" encoding="utf-8"?>
<!-- Generator: Adobe Illustrator 16.0.0, SVG Export Plug-In . SVG Version: 6.00 Build 0)  -->
<!DOCTYPE svg PUBLIC "-//W3C//DTD SVG 1.1//EN" "http://www.w3.org/Graphics/SVG/1.1/DTD/svg11.dtd">
<svg version="1.1" id="Layer_1" xmlns="http://www.w3.org/2000/svg" xmlns:xlink="http://www.w3.org/1999/xlink" x="0px" y="0px"
	 width="22px" height="22px" viewBox="0 0 22 22" enable-background="new 0 0 22 22" xml:space="preserve">
<path fill="#939598" d="M1.77,0.999H1.79h7.976c0.426,0,0.771,0.344,0.771,0.77v0.02v7.976c0,0.428-0.346,0.771-0.771,0.771H9.748
	H1.77C1.345,10.536,1,10.192,1,9.765v-0.02V1.769C1,1.343,1.345,0.999,1.77,0.999L1.77,0.999z M8.996,2.538L8.996,2.538H2.539v6.459
	h6.457V2.538L8.996,2.538z M19.464,2.538L19.464,2.538h-6.46v6.459h6.46V2.538L19.464,2.538z M12.234,0.999L12.234,0.999h7.979
	h0.021c0.423,0,0.767,0.344,0.767,0.77v7.977v0.02c0,0.428-0.344,0.771-0.767,0.771h-7.979h-0.021c-0.425,0-0.77-0.344-0.77-0.771
	V1.789v-0.02C11.465,1.343,11.81,0.999,12.234,0.999L12.234,0.999z M2.539,19.462L2.539,19.462h6.457v-6.457H2.539V19.462
	L2.539,19.462z M9.766,21.001L9.766,21.001H1.79H1.77c-0.425,0-0.77-0.344-0.77-0.771v-7.976v-0.021c0-0.423,0.345-0.771,0.77-0.771
	h7.979h0.018c0.426,0,0.771,0.349,0.771,0.771v7.977v0.02C10.537,20.657,10.191,21.001,9.766,21.001L9.766,21.001z M20.233,21.001
	L20.233,21.001h-0.021h-7.979c-0.425,0-0.77-0.344-0.77-0.771v-0.02v-7.977c0-0.423,0.345-0.771,0.77-0.771h0.021h7.979
	c0.423,0,0.767,0.349,0.767,0.771v0.021v7.976C21,20.657,20.656,21.001,20.233,21.001L20.233,21.001z M13.004,19.462L13.004,19.462
	h6.46v-6.457h-6.46V19.462L13.004,19.462z"/>
</svg>
