<?xml version="1.0" encoding="utf-8"?>
<!-- Generator: Adobe Illustrator 16.0.0, SVG Export Plug-In . SVG Version: 6.00 Build 0)  -->
<!DOCTYPE svg PUBLIC "-//W3C//DTD SVG 1.1//EN" "http://www.w3.org/Graphics/SVG/1.1/DTD/svg11.dtd">
<svg version="1.1" id="Layer_1" xmlns="http://www.w3.org/2000/svg" xmlns:xlink="http://www.w3.org/1999/xlink" x="0px" y="0px"
	 width="22px" height="22px" viewBox="0 0 22 22" enable-background="new 0 0 22 22" xml:space="preserve">
<path fill="#939598" d="M6.45,14.555h10.221c0.272,0,0.493-0.223,0.493-0.495c0-0.274-0.221-0.497-0.493-0.497H6.45
	c-0.28,0-0.501,0.223-0.501,0.497C5.949,14.332,6.169,14.555,6.45,14.555L6.45,14.555z M6.45,17.752L6.45,17.752h10.221
	c0.272,0,0.493-0.221,0.493-0.495c0-0.272-0.221-0.495-0.493-0.495H6.45c-0.28,0-0.501,0.223-0.501,0.495
	C5.949,17.531,6.169,17.752,6.45,17.752L6.45,17.752z M20.166,9.573L20.166,9.573H6.467l13.197-4.024
	c0.425-0.132,0.673-0.593,0.544-1.027l-1.121-3.682c-0.137-0.434-0.596-0.683-1.029-0.548L1.586,5.316
	c-0.434,0.132-0.68,0.591-0.553,1.027l1.122,3.683l0.025,0.063c-0.042,0.093-0.059,0.2-0.059,0.31v10.519
	c0,0.457,0.365,0.827,0.824,0.827h17.219c0.46,0,0.833-0.37,0.833-0.827V10.399C20.999,9.942,20.626,9.573,20.166,9.573
	L20.166,9.573z M16.535,2.474L16.535,2.474l1.216-0.37l0.646,2.109l-2.433,0.742L16.535,2.474L16.535,2.474z M12.878,3.59
	L12.878,3.59l2.568-0.782l-0.578,2.479L12.31,6.069L12.878,3.59L12.878,3.59z M9.222,4.707L9.222,4.707l2.568-0.782l-0.578,2.48
	l-2.56,0.782L9.222,4.707L9.222,4.707z M5.566,5.82L5.566,5.82l2.567-0.78L7.556,7.521L4.988,8.303L5.566,5.82L5.566,5.82z
	 M2.845,6.651L2.845,6.651l1.633-0.495L3.899,8.635L3.492,8.76L2.845,6.651L2.845,6.651z M19.35,20.091L19.35,20.091H3.771v-8.867
	H19.35V20.091L19.35,20.091z"/>
</svg>
