<?xml version="1.0" encoding="utf-8"?>
<!-- Generator: Adobe Illustrator 16.0.0, SVG Export Plug-In . SVG Version: 6.00 Build 0)  -->
<!DOCTYPE svg PUBLIC "-//W3C//DTD SVG 1.1//EN" "http://www.w3.org/Graphics/SVG/1.1/DTD/svg11.dtd">
<svg version="1.1" id="Layer_1" xmlns="http://www.w3.org/2000/svg" xmlns:xlink="http://www.w3.org/1999/xlink" x="0px" y="0px"
	 width="22px" height="22px" viewBox="0 0 22 22" enable-background="new 0 0 22 22" xml:space="preserve">
<path fill="#939598" d="M10.452,19.745l-7.628-7.627c-0.799-0.796-1.368-1.737-1.646-2.766C0.917,8.375,0.933,7.326,1.29,6.262
	c0.308-0.93,0.847-1.769,1.542-2.449c0.697-0.68,1.552-1.21,2.485-1.507c1.1-0.348,2.176-0.352,3.188-0.087
	c0.902,0.237,1.749,0.692,2.493,1.313c0.751-0.621,1.599-1.076,2.5-1.313c1.013-0.265,2.089-0.257,3.188,0.091
	c0.934,0.297,1.789,0.823,2.485,1.507c0.696,0.677,1.234,1.52,1.543,2.445v0.004V6.262c0.356,1.06,0.364,2.113,0.103,3.09
	c-0.277,1.028-0.847,1.97-1.646,2.766l-0.04,0.039l-7.596,7.588c-0.293,0.301-0.775,0.297-1.076,0H10.452L10.452,19.745z
	 M11.908,4.774L11.908,4.774L11.908,4.774L9.456,7.228c-0.183,0.178-0.468,0.182-0.657,0c-0.174-0.178-0.174-0.467,0-0.649
	l1.566-1.563l-0.031-0.023c-0.656-0.625-1.408-1.076-2.216-1.29c-0.743-0.194-1.535-0.19-2.334,0.063
	C5.08,3.987,4.439,4.387,3.908,4.909C3.378,5.423,2.974,6.052,2.746,6.745c-0.254,0.76-0.27,1.511-0.08,2.211
	c0.206,0.756,0.642,1.465,1.251,2.073l7.082,7.086l7.05-7.046l0.04-0.04c0.608-0.608,1.044-1.317,1.242-2.069
	c0.189-0.7,0.174-1.452-0.079-2.215h0.008c-0.229-0.688-0.633-1.321-1.163-1.832c-0.53-0.522-1.171-0.922-1.876-1.144
	c-0.799-0.253-1.59-0.261-2.334-0.067C13.183,3.888,12.51,4.26,11.908,4.774L11.908,4.774z"/>
</svg>
