<?xml version="1.0" encoding="utf-8"?>
<!-- Generator: Adobe Illustrator 16.0.0, SVG Export Plug-In . SVG Version: 6.00 Build 0)  -->
<!DOCTYPE svg PUBLIC "-//W3C//DTD SVG 1.1//EN" "http://www.w3.org/Graphics/SVG/1.1/DTD/svg11.dtd">
<svg version="1.1" id="Layer_1" xmlns="http://www.w3.org/2000/svg" xmlns:xlink="http://www.w3.org/1999/xlink" x="0px" y="0px"
	 width="22px" height="22px" viewBox="0 0 22 22" enable-background="new 0 0 22 22" xml:space="preserve">
<path fill="#939598" d="M10.997,6.456c-2.493,0-4.543,2.046-4.543,4.545c0,2.498,2.05,4.542,4.543,4.542
	c2.5,0,4.55-2.044,4.55-4.542C15.547,8.502,13.497,6.456,10.997,6.456L10.997,6.456z M10.997,14.621L10.997,14.621
	c-1.994,0-3.617-1.626-3.617-3.62S9.002,7.38,10.997,7.38c1.993,0,3.624,1.627,3.624,3.621S12.989,14.621,10.997,14.621
	L10.997,14.621z M20.919,10.66L20.919,10.66c-1.859-3.753-5.737-6.167-9.922-6.167c-4.186,0-8.064,2.414-9.917,6.167
	c-0.103,0.206-0.11,0.457,0,0.681c1.852,3.75,5.731,6.166,9.917,6.166c4.185,0,8.063-2.416,9.922-6.166
	C21.021,11.133,21.031,10.882,20.919,10.66L20.919,10.66z M10.997,15.968L10.997,15.968c-3.467,0-6.703-1.92-8.365-4.967
	c1.662-3.047,4.898-4.969,8.365-4.969c3.473,0,6.709,1.922,8.372,4.969C17.706,14.048,14.47,15.968,10.997,15.968L10.997,15.968z
	 M12.729,10.282L12.729,10.282c-0.285-0.7-0.981-1.16-1.733-1.16c-0.254,0-0.459,0.207-0.459,0.462s0.205,0.463,0.459,0.463
	c0.388,0,0.735,0.231,0.887,0.587l0.007,0.015c0.04,0.106,0.063,0.226,0.063,0.353c0,0.381-0.229,0.735-0.585,0.882l-0.017,0.008
	c-0.229,0.087-0.49,0.083-0.72-0.008l0,0c-0.356-0.149-0.585-0.501-0.585-0.882c0-0.256-0.206-0.461-0.468-0.461
	c-0.253,0-0.459,0.205-0.459,0.461c0,0.492,0.198,0.977,0.554,1.324c0.167,0.173,0.373,0.311,0.609,0.408l0,0
	c0.451,0.186,0.957,0.19,1.409,0.008l0.023-0.008c0.229-0.098,0.435-0.235,0.61-0.408c0.347-0.348,0.545-0.832,0.545-1.324
	c0-0.242-0.039-0.476-0.126-0.695L12.729,10.282L12.729,10.282z"/>
</svg>
