<?xml version="1.0" encoding="utf-8"?>
<!-- Generator: Adobe Illustrator 16.0.0, SVG Export Plug-In . SVG Version: 6.00 Build 0)  -->
<!DOCTYPE svg PUBLIC "-//W3C//DTD SVG 1.1//EN" "http://www.w3.org/Graphics/SVG/1.1/DTD/svg11.dtd">
<svg version="1.1" id="Layer_1" xmlns="http://www.w3.org/2000/svg" xmlns:xlink="http://www.w3.org/1999/xlink" x="0px" y="0px"
	 width="22px" height="22px" viewBox="0 0 22 22" enable-background="new 0 0 22 22" xml:space="preserve">
<path fill="#939598" d="M21,12.952c0-0.262-0.212-0.479-0.473-0.479l-2.712,0.009l-0.833-2.564L17.701,9.4l0,0
	c0.114-0.086,0.195-0.225,0.195-0.384c0-0.261-0.212-0.474-0.481-0.474L12.859,8.55l-1.406-4.344
	c-0.05-0.139-0.155-0.258-0.31-0.307c-0.246-0.082-0.516,0.057-0.598,0.307L9.142,8.55L4.61,8.542
	C4.447,8.535,4.292,8.599,4.194,8.739C4.039,8.951,4.088,9.249,4.299,9.4l0.711,0.519l-0.825,2.564l-2.678-0.009
	c-0.164-0.008-0.319,0.062-0.417,0.196c-0.155,0.212-0.106,0.511,0.106,0.665l2.197,1.589L2.544,17.5
	c-0.041,0.144-0.017,0.298,0.073,0.425c0.155,0.213,0.449,0.262,0.662,0.106l2.188-1.597l2.164,1.576
	c0.123,0.102,0.294,0.143,0.458,0.09c0.245-0.082,0.384-0.352,0.302-0.601L8.04,16.414l2.956-2.155l2.965,2.155L13.609,17.5l0,0
	c-0.049,0.144-0.024,0.298,0.066,0.425c0.155,0.213,0.449,0.262,0.661,0.106l2.188-1.597l2.164,1.576
	c0.123,0.102,0.294,0.143,0.457,0.09c0.245-0.082,0.384-0.352,0.303-0.601l-0.842-2.576l2.197-1.589
	C20.918,13.25,21,13.106,21,12.952L21,12.952z M7.419,13.846L7.419,13.846L6.708,14.36c-0.171,0.123-0.236,0.339-0.171,0.531
	l0.27,0.824l-0.131,0.417l-0.931-0.67c-0.171-0.122-0.392-0.114-0.555,0v0.004l-1.282,0.931l0.499-1.506
	c0.065-0.205-0.017-0.421-0.18-0.535l-0.008-0.004v-0.004L2.944,13.43l1.584,0.004c0.212,0,0.392-0.139,0.449-0.331l0.49-1.51
	l0.491,1.51c0.065,0.213,0.269,0.344,0.481,0.331l1.119-0.004L7.419,13.846L7.419,13.846z M6.757,12.482L6.757,12.482l-0.555-1.698
	l1.796,1.293l-0.13,0.399L6.757,12.482L6.757,12.482z M11.282,13.286L11.282,13.286c-0.179-0.122-0.4-0.118-0.563,0v0.004
	l-2.776,2.025l0.334-1.021v-0.008l0.392-1.188l0.343-1.058c0.065-0.2-0.016-0.416-0.18-0.534H8.824v-0.005L6.048,9.494l3.446,0.008
	c0.204,0,0.384-0.139,0.449-0.33l0,0l1.053-3.271l1.063,3.271c0.065,0.212,0.27,0.343,0.481,0.33l3.405-0.008l-2.785,2.018
	c-0.171,0.122-0.236,0.343-0.171,0.53l0.335,1.033l0.008,0.024l0.393,1.188l0.334,1.028L11.282,13.286L11.282,13.286z
	 M14.132,12.478L14.132,12.478l-0.13-0.399l1.789-1.293l-0.548,1.698L14.132,12.478L14.132,12.478z M17.767,14.36L17.767,14.36
	c-0.163,0.123-0.237,0.339-0.171,0.531l0.498,1.506l-1.283-0.935c-0.171-0.122-0.399-0.114-0.563,0l-0.008,0.004l-0.916,0.666
	l-0.139-0.417l0.277-0.824c0.066-0.205-0.016-0.421-0.179-0.535v-0.004l-0.009-0.004l-0.693-0.503l-0.139-0.416l1.15,0.004
	c0.205,0,0.385-0.139,0.449-0.331l0,0l0.482-1.51l0.49,1.51c0.065,0.213,0.269,0.344,0.481,0.331l1.552-0.004L17.767,14.36
	L17.767,14.36z"/>
</svg>
