<?xml version="1.0" encoding="utf-8"?>
<!-- Generator: Adobe Illustrator 16.0.0, SVG Export Plug-In . SVG Version: 6.00 Build 0)  -->
<!DOCTYPE svg PUBLIC "-//W3C//DTD SVG 1.1//EN" "http://www.w3.org/Graphics/SVG/1.1/DTD/svg11.dtd">
<svg version="1.1" id="Layer_1" xmlns="http://www.w3.org/2000/svg" xmlns:xlink="http://www.w3.org/1999/xlink" x="0px" y="0px"
	 width="22px" height="22px" viewBox="0 0 22 22" enable-background="new 0 0 22 22" xml:space="preserve">
<g>
	<path fill="#939598" d="M19.944,2.364c-0.653-0.653-1.551-1.056-2.54-1.056H4.6c-0.991,0-1.891,0.403-2.543,1.056
		C1.404,3.015,1,3.915,1,4.904v8.108c0,0.991,0.404,1.893,1.057,2.546c0.653,0.648,1.553,1.052,2.543,1.052h12.804
		c0.989,0,1.887-0.403,2.54-1.052C20.597,14.904,21,14.003,21,13.012V4.904C21,3.915,20.597,3.015,19.944,2.364z M18.856,14.468
		c-0.376,0.372-0.891,0.605-1.452,0.605h-6.065v-0.829c0-0.293-0.233-0.519-0.518-0.519c-0.289,0-0.518,0.226-0.518,0.519v0.829H4.6
		c-0.567,0-1.082-0.233-1.456-0.605c-0.372-0.374-0.605-0.891-0.605-1.456V9.477H3.41c0.292,0,0.518-0.233,0.518-0.519
		c0-0.289-0.226-0.518-0.518-0.518H2.539V4.904c0-0.566,0.233-1.08,0.605-1.454C3.518,3.078,4.033,2.845,4.6,2.845h12.804
		c0.562,0,1.076,0.233,1.452,0.605c0.371,0.374,0.604,0.888,0.604,1.454V8.44h-0.87c-0.293,0-0.514,0.233-0.514,0.518
		c0,0.289,0.221,0.519,0.514,0.519h0.87v3.535C19.461,13.577,19.228,14.094,18.856,14.468z"/>
	<path fill="#939598" d="M20.229,18.513H9.114c-0.014,0-0.024,0.012-0.038,0.016c-0.081-0.289-0.208-0.558-0.416-0.771
		c-0.314-0.309-0.744-0.502-1.216-0.502c-0.471,0-0.902,0.193-1.217,0.502c-0.204,0.206-0.328,0.475-0.409,0.756H1.771
		c-0.255,0-0.463,0.206-0.463,0.463c0,0.253,0.208,0.459,0.463,0.459h4.047c0.081,0.284,0.206,0.554,0.409,0.756
		c0.314,0.313,0.746,0.502,1.217,0.502c0.473,0,0.902-0.189,1.216-0.502c0.208-0.21,0.334-0.479,0.416-0.771
		c0.014,0.004,0.023,0.016,0.038,0.016h11.114c0.254,0,0.467-0.206,0.467-0.459C20.695,18.719,20.482,18.513,20.229,18.513z
		 M8.01,19.537c-0.142,0.146-0.344,0.237-0.565,0.237c-0.222,0-0.421-0.091-0.566-0.237c-0.143-0.143-0.231-0.34-0.231-0.562
		s0.089-0.424,0.231-0.565v-0.004c0.145-0.143,0.344-0.229,0.566-0.229c0.221,0,0.423,0.087,0.565,0.229v0.004
		c0.143,0.142,0.231,0.344,0.231,0.565S8.153,19.395,8.01,19.537z"/>
	<path fill="#939598" d="M14.243,8.442h-2.9V4.708c0-0.285-0.229-0.515-0.514-0.515c-0.289,0-0.526,0.229-0.526,0.515v4.25
		c0,0.287,0.237,0.519,0.526,0.519h0.008h3.406c0.293,0,0.519-0.231,0.519-0.519C14.762,8.67,14.536,8.442,14.243,8.442z"/>
</g>
</svg>
